<svg xmlns="http://www.w3.org/2000/svg" xmlns:xlink="http://www.w3.org/1999/xlink"
     width="530" height="186.0" viewBox="0 0 530 186.0">
<style>/*<![CDATA[*/.background {
    stroke: #636363;
    fill: #151A1E;
}

.header {
    font: 400 20px Sans-Serif;
    font-size: 20px;
    fill: #E9E9E9;
}

.label {
    font: 400 13px Lucida Console, Monospace;
    font-size: 13px;
    fill: #CCCCCC;
}

.language-label
{
    font: 400 14px Sans-Serif;
    font-size: 14px;
    fill: #CCCCCC;
}

.progress-bar-bg { fill: #DDDDDD; }
.progress-bar-fill { fill: #818181; }
/*]]>*/</style>
<defs>
</defs>
<rect x="0.5" y="0.5" width="529" height="185.0" rx="5" ry="5" stroke-opacity="1" class="background" />
<text x="25" y="35.0" font-size="0" class="header">I'm a night 🦉</text>
<g transform="translate(25, 70.0)">
<g transform="translate(0, 0)">
<text x="0" y="0" font-size="0" class="label">🌅 Morning</text>
<text x="200" y="0" font-size="0" text-anchor="end" class="label">30 commits</text>
<rect x="210" y="-10" width="205" height="12" rx="3" ry="3" class="progress-bar-bg" />
<rect x="210" y="-10" width="1.4563106796116505" height="12" rx="3" ry="3" class="progress-bar-fill" />
<text x="475" y="0" font-size="0" text-anchor="end" class="label">0.71%</text>
</g>
<g transform="translate(0, 30)">
<text x="0" y="0" font-size="0" class="label">☀️ Daytime</text>
<text x="200" y="0" font-size="0" text-anchor="end" class="label">1564 commits</text>
<rect x="210" y="-10" width="205" height="12" rx="3" ry="3" class="progress-bar-bg" />
<rect x="210" y="-10" width="75.92233009708738" height="12" rx="3" ry="3" class="progress-bar-fill" />
<text x="475" y="0" font-size="0" text-anchor="end" class="label">37.04%</text>
</g>
<g transform="translate(0, 60)">
<text x="0" y="0" font-size="0" class="label">🌇 Evening</text>
<text x="200" y="0" font-size="0" text-anchor="end" class="label">2130 commits</text>
<rect x="210" y="-10" width="205" height="12" rx="3" ry="3" class="progress-bar-bg" />
<rect x="210" y="-10" width="103.39805825242718" height="12" rx="3" ry="3" class="progress-bar-fill" />
<text x="475" y="0" font-size="0" text-anchor="end" class="label">50.44%</text>
</g>
<g transform="translate(0, 90)">
<text x="0" y="0" font-size="0" class="label">🌙 Night</text>
<text x="200" y="0" font-size="0" text-anchor="end" class="label">499 commits</text>
<rect x="210" y="-10" width="205" height="12" rx="3" ry="3" class="progress-bar-bg" />
<rect x="210" y="-10" width="24.223300970873787" height="12" rx="3" ry="3" class="progress-bar-fill" />
<text x="475" y="0" font-size="0" text-anchor="end" class="label">11.82%</text>
</g>
</g>
</svg>