<svg xmlns="http://www.w3.org/2000/svg" xmlns:xlink="http://www.w3.org/1999/xlink"
     width="530" height="195" viewBox="0 0 530 195">
<style>/*<![CDATA[*/.background {
    stroke: #636363;
    fill: #151A1E;
}

.header {
    font: 400 20px Sans-Serif;
    font-size: 20px;
    fill: #E9E9E9;
}

.label {
    font: 400 13px Lucida Console, Monospace;
    font-size: 13px;
    fill: #CCCCCC;
}

.language-label
{
    font: 400 14px Sans-Serif;
    font-size: 14px;
    fill: #CCCCCC;
}

.progress-bar-bg { fill: #DDDDDD; }
.progress-bar-fill { fill: #818181; }
/*]]>*/</style>
<defs>
<mask id="mask" x="0" y="0" width="480" height="10" rx="3">
<rect x="0" y="0" width="480" height="10" rx="3" fill="white" />
</mask>
</defs>
<rect x="0.5" y="0.5" width="529" height="194" rx="5" ry="5" stroke-opacity="1" class="background" />
<text x="25" y="35" font-size="0" class="header">Most Used Languages</text>
<g transform="translate(25, 60)">
<use xlink:href="#mask" />
<rect x="0" y="0" width="322.1927326532433" height="10" fill="#178600" mask="url(#mask)" />
<circle cx="5" cy="30" r="5" fill="#178600" />
<text x="15" y="35" font-size="0" class="language-label">C# <tspan opacity="0.7">(67.12%)</tspan></text>
<rect x="322.1927326532433" y="0" width="65.79592094697082" height="10" fill="#f34b7d" mask="url(#mask)" />
<circle cx="257.5" cy="30" r="5" fill="#f34b7d" />
<text x="267.5" y="35" font-size="0" class="language-label">C++ <tspan opacity="0.7">(13.71%)</tspan></text>
<rect x="387.9886536002141" y="0" width="22.366609166344464" height="10" fill="#3572A5" mask="url(#mask)" />
<circle cx="5" cy="55" r="5" fill="#3572A5" />
<text x="15" y="60" font-size="0" class="language-label">Python <tspan opacity="0.7">(4.66%)</tspan></text>
<rect x="410.35526276655855" y="0" width="15.398499539006036" height="10" fill="#555555" mask="url(#mask)" />
<circle cx="257.5" cy="55" r="5" fill="#555555" />
<text x="267.5" y="60" font-size="0" class="language-label">C <tspan opacity="0.7">(3.21%)</tspan></text>
<rect x="425.7537623055646" y="0" width="15.230980281355023" height="10" fill="#dea584" mask="url(#mask)" />
<circle cx="5" cy="80" r="5" fill="#dea584" />
<text x="15" y="85" font-size="0" class="language-label">Rust <tspan opacity="0.7">(3.17%)</tspan></text>
<rect x="440.9847425869196" y="0" width="11.835313624602207" height="10" fill="#CACDD3" mask="url(#mask)" />
<circle cx="257.5" cy="80" r="5" fill="#CACDD3" />
<text x="267.5" y="85" font-size="0" class="language-label">ShaderLab <tspan opacity="0.7">(2.47%)</tspan></text>
<rect x="452.8200562115218" y="0" width="27.179943788478123" height="10" fill="#999999" mask="url(#mask)" />
<circle cx="5" cy="105" r="5" fill="#999999" />
<text x="15" y="110" font-size="0" class="language-label">Other <tspan opacity="0.7">(5.66%)</tspan></text>
</g>
</svg>